<svg width="25" height="25" viewBox="0 0 25 25" fill="none" xmlns="http://www.w3.org/2000/svg">
<g clip-path="url(#clip0_2_857)">
<path fill-rule="evenodd" clip-rule="evenodd" d="M23.3878 20.7622C23.1638 21.3311 22.647 22.132 21.9142 22.6963C21.491 23.0222 20.9859 23.3338 20.2921 23.5393C19.5524 23.7585 18.6414 23.8326 17.5074 23.8326H7.13948C6.00565 23.8326 5.0946 23.7585 4.35486 23.5393C3.66099 23.3338 3.15594 23.0222 2.73273 22.6963C1.99995 22.132 1.48308 21.3312 1.25912 20.7622C0.808076 19.616 0.803497 18.3155 0.803497 17.4965V7.12846C0.803497 6.30951 0.808076 5.00895 1.25921 3.86277C1.48317 3.29389 1.99995 2.4929 2.73282 1.92869C3.15594 1.60281 3.66109 1.29132 4.35486 1.08576C5.0946 0.866555 6.00565 0.79248 7.13948 0.79248H17.5075C18.6414 0.79248 19.5524 0.866555 20.2922 1.08576C20.986 1.29132 21.491 1.6029 21.9143 1.92869C22.647 2.49299 23.1639 3.29389 23.3879 3.86277C23.8389 5.00895 23.8435 6.30951 23.8435 7.12846V17.4964C23.8435 18.3155 23.8389 19.616 23.3878 20.7622Z" fill="url(#paint0_linear_2_857)"/>
<path d="M13.9936 14.0357C13.648 13.671 13.0407 13.4371 12.3238 13.4371C11.6068 13.4371 10.9995 13.671 10.6539 14.0357C10.4735 14.226 10.378 14.4211 10.348 14.6991C10.2899 15.2375 10.3226 15.7009 10.3856 16.442C10.4457 17.1482 10.5598 18.0898 10.7087 19.0488C10.8146 19.7314 10.9007 20.0997 10.9791 20.3636C11.1062 20.7911 11.5811 21.1649 12.3238 21.1649C13.0664 21.1649 13.5413 20.791 13.6684 20.3636C13.7469 20.0998 13.833 19.7315 13.9389 19.0488C14.0879 18.0898 14.2018 17.1483 14.2619 16.442C14.3249 15.7009 14.3576 15.2374 14.2994 14.6991C14.2695 14.4211 14.1741 14.2261 13.9936 14.0357ZM10.4401 10.7876C10.4401 11.8291 11.2843 12.6732 12.3257 12.6732C13.367 12.6732 14.2112 11.8291 14.2112 10.7876C14.2112 9.74629 13.367 8.90199 12.3257 8.90199C11.2843 8.90199 10.4401 9.74629 10.4401 10.7876ZM12.3023 3.34622C7.89221 3.35876 4.27877 6.9364 4.22411 11.346C4.17989 14.9182 6.46008 17.9739 9.64419 19.0938C9.72155 19.1211 9.80002 19.057 9.78775 18.9758C9.74609 18.6986 9.70672 18.4198 9.67046 18.1457C9.65764 18.0489 9.59593 17.9653 9.50638 17.9263C6.98977 16.8268 5.23231 14.3027 5.26051 11.3791C5.29751 7.5421 8.43052 4.41412 12.2675 4.38308C16.1899 4.3514 19.391 7.53303 19.391 11.4483C19.391 14.3427 17.6413 16.8357 15.1442 17.9265C15.0548 17.9655 14.9934 18.0493 14.9807 18.146C14.9445 18.42 14.9051 18.6986 14.8634 18.9757C14.8513 19.0568 14.9297 19.121 15.007 19.0937C18.1607 17.9844 20.4276 14.9764 20.4276 11.4483C20.4278 6.97303 16.7805 3.33358 12.3023 3.34622ZM12.156 7.0634C14.6558 6.96653 16.7205 8.97222 16.7205 11.451C16.7205 12.7116 16.1863 13.8498 15.3326 14.6513C15.2603 14.7193 15.2213 14.8158 15.227 14.9148C15.244 15.2165 15.2378 15.5094 15.2177 15.8403C15.2123 15.9284 15.3112 15.9848 15.3841 15.9349C16.8157 14.9567 17.7572 13.3118 17.7572 11.4509C17.7572 8.38686 15.205 5.9076 12.1149 6.02737C9.24305 6.13861 6.93895 8.50644 6.90223 11.3801C6.87806 13.2703 7.82538 14.9446 9.27528 15.9352C9.34806 15.985 9.44668 15.9284 9.44137 15.8405C9.42123 15.5094 9.41509 15.2164 9.43204 14.9148C9.43753 14.8159 9.3987 14.7195 9.32637 14.6515C8.44608 13.8251 7.90549 12.6406 7.93992 11.3332C8.00053 9.0321 9.85569 7.1525 12.156 7.0634Z" fill="white"/>
</g>
<defs>
<linearGradient id="paint0_linear_2_857" x1="12.3235" y1="0.792481" x2="12.3235" y2="23.8325" gradientUnits="userSpaceOnUse">
<stop stop-color="#F452FF"/>
<stop offset="1" stop-color="#832BC1"/>
</linearGradient>
<clipPath id="clip0_2_857">
<rect width="24" height="24" fill="white" transform="translate(0.323486 0.3125)"/>
</clipPath>
</defs>
</svg>
