<svg width="27" height="20" viewBox="0 0 27 20" fill="none" xmlns="http://www.w3.org/2000/svg">
<g clip-path="url(#clip0_2_851)">
<path d="M25.7815 3.8497C25.4974 2.78369 24.6606 1.94426 23.5977 1.65936C21.6716 1.1416 13.9476 1.1416 13.9476 1.1416C13.9476 1.1416 6.22373 1.1416 4.29749 1.65936C3.23479 1.94426 2.39779 2.78369 2.11376 3.8497C1.59763 5.78175 1.59763 9.81283 1.59763 9.81283C1.59763 9.81283 1.59763 13.844 2.11376 15.7762C2.39779 16.8421 3.23479 17.6815 4.29749 17.9665C6.22373 18.4841 13.9476 18.4841 13.9476 18.4841C13.9476 18.4841 21.6716 18.4841 23.5977 17.9665C24.6606 17.6815 25.4974 16.8421 25.7815 15.7762C26.2976 13.844 26.2976 9.81283 26.2976 9.81283C26.2976 9.81283 26.2976 5.78175 25.7815 3.8497Z" fill="#ED1D24"/>
<path d="M11.4209 13.4728L17.8767 9.81297L11.4209 6.15283V13.4728Z" fill="white"/>
</g>
<defs>
<clipPath id="clip0_2_851">
<rect width="26" height="19" fill="white" transform="translate(0.947632 0.3125)"/>
</clipPath>
</defs>
</svg>
